<svg width="152" height="23" viewBox="0 0 152 23" fill="none" xmlns="http://www.w3.org/2000/svg">
<path fill-rule="evenodd" clip-rule="evenodd" d="M4.91376 2.82792H1.33247V5.04251H4.91376V2.82792ZM4.91376 7.87345H1.33247V10.0847H4.91376V7.87345ZM4.91376 12.9153H1.33247V15.1272H4.91376V12.9153ZM4.91376 17.9578H1.33247V20.1724H4.91376V17.9578ZM21.6287 2.82792H18.0474V5.04251H21.6287V2.82792ZM21.6287 7.87345H18.0474V10.0847H21.6287V7.87345ZM21.6287 12.9153H18.0474V15.1272H21.6287V12.9153ZM21.6287 17.9578H18.0474V20.1724H21.6287V17.9578ZM14.5995 11.4222L8.07835 7.43355V15.1456L14.5995 11.4222ZM1.33247 0H4.91376H18.0474H21.6287H23V23H21.6287H18.0474H4.91376H1.33247C1.11959 23 0.209092 23 1.39583e-06 23V0C0.228722 0 0.228722 0 1.33247 0Z" fill="white"/>
<path d="M34.5315 5.2595C34.8318 5.08283 35.2823 4.915 35.883 4.756C36.5013 4.597 37.1197 4.5175 37.738 4.5175C38.6213 4.5175 39.3987 4.65 40.07 4.915C40.759 5.16233 41.2007 5.55983 41.395 6.1075C41.713 7.02617 42.0575 8.095 42.4285 9.314C42.7995 10.533 43.1705 11.7962 43.5415 13.1035C43.9125 14.3932 44.2747 15.674 44.628 16.946C44.9813 18.2003 45.2905 19.3133 45.5555 20.285C45.3435 20.5323 45.0255 20.7267 44.6015 20.868C44.1775 21.027 43.674 21.1065 43.091 21.1065C42.667 21.1065 42.3048 21.0712 42.0045 21.0005C41.7218 20.9298 41.4833 20.8238 41.289 20.6825C41.1123 20.5412 40.9622 20.3557 40.8385 20.126C40.7325 19.8963 40.6353 19.6313 40.547 19.331L40.07 17.5025H35.2735C35.1322 18.0325 34.9908 18.5802 34.8495 19.1455C34.7082 19.7108 34.5668 20.2585 34.4255 20.7885C34.1782 20.8768 33.9132 20.9475 33.6305 21.0005C33.3655 21.0712 33.0387 21.1065 32.65 21.1065C31.749 21.1065 31.0777 20.9563 30.636 20.656C30.212 20.338 30 19.9052 30 19.3575C30 19.1102 30.0353 18.8628 30.106 18.6155C30.1767 18.3682 30.2562 18.0767 30.3445 17.741C30.4682 17.264 30.636 16.6722 30.848 15.9655C31.0777 15.2588 31.325 14.4992 31.59 13.6865C31.855 12.8562 32.1377 12.0082 32.438 11.1425C32.7383 10.2768 33.021 9.46417 33.286 8.7045C33.551 7.92717 33.7895 7.23817 34.0015 6.6375C34.2312 6.03683 34.4078 5.5775 34.5315 5.2595ZM37.7115 8.678C37.4642 9.42 37.1815 10.2503 36.8635 11.169C36.5632 12.07 36.2893 12.9887 36.042 13.925H39.328C39.0807 12.971 38.8245 12.0435 38.5595 11.1425C38.3122 10.2238 38.0825 9.40233 37.8705 8.678H37.7115Z" fill="white"/>
<path d="M47.4358 7.9625C47.4358 7.0615 47.5859 6.293 47.8863 5.657C48.2043 5.00333 48.6283 4.47333 49.1583 4.067C49.6883 3.643 50.3066 3.33383 51.0133 3.1395C51.7376 2.94517 52.5061 2.848 53.3188 2.848C54.6261 2.848 55.5889 3.02467 56.2073 3.378C56.8256 3.71367 57.1348 4.29667 57.1348 5.127C57.1348 5.48033 57.0553 5.79833 56.8963 6.081C56.7549 6.36367 56.5959 6.57567 56.4193 6.717C56.0836 6.62867 55.7303 6.558 55.3593 6.505C55.0059 6.43433 54.5908 6.399 54.1138 6.399C53.3541 6.399 52.7623 6.5315 52.3383 6.7965C51.9143 7.04383 51.7023 7.4855 51.7023 8.1215V8.9695H56.0483C56.1543 9.16383 56.2514 9.41117 56.3398 9.7115C56.4458 9.99417 56.4988 10.3122 56.4988 10.6655C56.4988 11.2838 56.3574 11.7343 56.0748 12.017C55.8098 12.282 55.4476 12.4145 54.9883 12.4145H51.9408V20.815C51.7641 20.868 51.4814 20.921 51.0928 20.974C50.7218 21.027 50.3331 21.0535 49.9268 21.0535C49.5381 21.0535 49.1848 21.027 48.8668 20.974C48.5664 20.921 48.3103 20.815 48.0983 20.656C47.8863 20.497 47.7184 20.285 47.5948 20.02C47.4888 19.7373 47.4358 19.3752 47.4358 18.9335V7.9625ZM58.5923 4.385C58.5923 3.71367 58.8131 3.14833 59.2548 2.689C59.7141 2.22967 60.3148 2 61.0568 2C61.7988 2 62.3906 2.22967 62.8323 2.689C63.2916 3.14833 63.5213 3.71367 63.5213 4.385C63.5213 5.05633 63.2916 5.62167 62.8323 6.081C62.3906 6.54033 61.7988 6.77 61.0568 6.77C60.3148 6.77 59.7141 6.54033 59.2548 6.081C58.8131 5.62167 58.5923 5.05633 58.5923 4.385ZM63.3093 20.815C63.1149 20.8503 62.8234 20.8945 62.4348 20.9475C62.0638 21.0182 61.6839 21.0535 61.2953 21.0535C60.9066 21.0535 60.5533 21.027 60.2353 20.974C59.9349 20.921 59.6788 20.815 59.4668 20.656C59.2548 20.497 59.0869 20.285 58.9633 20.02C58.8573 19.7373 58.8043 19.3752 58.8043 18.9335V8.148C58.9986 8.11267 59.2813 8.0685 59.6523 8.0155C60.0409 7.94483 60.4296 7.9095 60.8183 7.9095C61.2069 7.9095 61.5514 7.936 61.8518 7.989C62.1698 8.042 62.4348 8.148 62.6468 8.307C62.8588 8.466 63.0178 8.68683 63.1238 8.9695C63.2474 9.2345 63.3093 9.58783 63.3093 10.0295V20.815Z" fill="white"/>
<path d="M77.0358 16.999C77.0358 18.3417 76.5323 19.3928 75.5253 20.1525C74.5183 20.9122 73.0343 21.292 71.0733 21.292C70.3313 21.292 69.6423 21.239 69.0063 21.133C68.3703 21.027 67.8227 20.868 67.3633 20.656C66.9217 20.4263 66.5683 20.1437 66.3033 19.808C66.056 19.4723 65.9323 19.0748 65.9323 18.6155C65.9323 18.1915 66.0207 17.8382 66.1973 17.5555C66.374 17.2552 66.586 17.0078 66.8333 16.8135C67.3457 17.0962 67.9287 17.3523 68.5823 17.582C69.2537 17.794 70.0222 17.9 70.8878 17.9C71.4355 17.9 71.8507 17.8205 72.1333 17.6615C72.4337 17.5025 72.5838 17.2905 72.5838 17.0255C72.5838 16.7782 72.4778 16.5838 72.2658 16.4425C72.0538 16.3012 71.7005 16.1863 71.2058 16.098L70.4108 15.939C68.8738 15.6387 67.7255 15.1705 66.9658 14.5345C66.2238 13.8808 65.8528 12.9533 65.8528 11.752C65.8528 11.0983 65.9942 10.5065 66.2768 9.9765C66.5595 9.4465 66.957 9.00483 67.4693 8.6515C67.9817 8.29817 68.5912 8.02433 69.2978 7.83C70.0222 7.63567 70.8172 7.5385 71.6828 7.5385C72.3365 7.5385 72.946 7.5915 73.5113 7.6975C74.0943 7.78583 74.5978 7.92717 75.0218 8.1215C75.4458 8.31583 75.7815 8.572 76.0288 8.89C76.2762 9.19033 76.3998 9.5525 76.3998 9.9765C76.3998 10.3828 76.3203 10.7362 76.1613 11.0365C76.02 11.3192 75.8345 11.5577 75.6048 11.752C75.4635 11.6637 75.2515 11.5753 74.9688 11.487C74.6862 11.381 74.377 11.2927 74.0413 11.222C73.7057 11.1337 73.3612 11.063 73.0078 11.01C72.6722 10.957 72.363 10.9305 72.0803 10.9305C71.4973 10.9305 71.0468 11.0012 70.7288 11.1425C70.4108 11.2662 70.2518 11.4693 70.2518 11.752C70.2518 11.9463 70.3402 12.1053 70.5168 12.229C70.6935 12.3527 71.0292 12.4675 71.5238 12.5735L72.3453 12.759C74.0413 13.1477 75.2427 13.6865 75.9493 14.3755C76.6737 15.0468 77.0358 15.9213 77.0358 16.999Z" fill="white"/>
<path d="M91.9338 20.815C91.7571 20.868 91.4745 20.921 91.0858 20.974C90.7148 21.027 90.3261 21.0535 89.9198 21.0535C89.5311 21.0535 89.1778 21.027 88.8598 20.974C88.5595 20.921 88.3033 20.815 88.0913 20.656C87.8793 20.497 87.7115 20.285 87.5878 20.02C87.4818 19.7373 87.4288 19.3752 87.4288 18.9335V13.0505C87.4288 12.3262 87.2433 11.8227 86.8723 11.54C86.519 11.2397 86.0773 11.0895 85.5473 11.0895C85.194 11.0895 84.8583 11.1337 84.5403 11.222C84.2223 11.3103 83.9661 11.4163 83.7718 11.54V20.815C83.5951 20.868 83.3125 20.921 82.9238 20.974C82.5528 21.027 82.1641 21.0535 81.7578 21.0535C81.3691 21.0535 81.0158 21.027 80.6978 20.974C80.3975 20.921 80.1413 20.815 79.9293 20.656C79.7173 20.497 79.5495 20.285 79.4258 20.02C79.3198 19.7373 79.2668 19.3752 79.2668 18.9335V3.5635C79.4611 3.52817 79.7438 3.484 80.1148 3.431C80.5035 3.36033 80.8921 3.325 81.2808 3.325C81.6695 3.325 82.014 3.3515 82.3143 3.4045C82.6323 3.4575 82.8973 3.5635 83.1093 3.7225C83.3213 3.8815 83.4803 4.10233 83.5863 4.385C83.71 4.65 83.7718 5.00333 83.7718 5.445V8.042C84.0015 7.95367 84.346 7.8565 84.8053 7.7505C85.2823 7.62683 85.8035 7.565 86.3688 7.565C88.1178 7.565 89.4781 8.00667 90.4498 8.89C91.4391 9.75567 91.9338 11.0542 91.9338 12.7855V20.815Z" fill="white"/>
<path d="M100.227 17.9795C100.528 17.9795 100.854 17.953 101.208 17.9C101.579 17.8293 101.853 17.741 102.029 17.635V15.515L100.121 15.674C99.6266 15.7093 99.2203 15.8153 98.9023 15.992C98.5843 16.1687 98.4253 16.4337 98.4253 16.787C98.4253 17.1403 98.5578 17.4318 98.8228 17.6615C99.1055 17.8735 99.5736 17.9795 100.227 17.9795ZM100.015 7.565C100.969 7.565 101.835 7.66217 102.612 7.8565C103.407 8.05083 104.079 8.35117 104.626 8.7575C105.192 9.14617 105.624 9.64967 105.925 10.268C106.225 10.8687 106.375 11.5842 106.375 12.4145V18.3505C106.375 18.8098 106.243 19.1897 105.978 19.49C105.73 19.7727 105.43 20.02 105.077 20.232C103.928 20.921 102.312 21.2655 100.227 21.2655C99.2909 21.2655 98.4429 21.1772 97.6833 21.0005C96.9413 20.8238 96.2964 20.5588 95.7488 20.2055C95.2188 19.8522 94.8036 19.4017 94.5033 18.854C94.2206 18.3063 94.0793 17.6703 94.0793 16.946C94.0793 15.727 94.4414 14.7907 95.1658 14.137C95.8901 13.4833 97.0119 13.077 98.5313 12.918L102.003 12.547V12.3615C102.003 11.8492 101.773 11.487 101.314 11.275C100.872 11.0453 100.227 10.9305 99.3793 10.9305C98.7079 10.9305 98.0543 11.0012 97.4183 11.1425C96.7823 11.2838 96.2081 11.4605 95.6958 11.6725C95.4661 11.5135 95.2718 11.275 95.1128 10.957C94.9538 10.6213 94.8743 10.2768 94.8743 9.9235C94.8743 9.46417 94.9803 9.102 95.1923 8.837C95.422 8.55433 95.7664 8.31583 96.2258 8.1215C96.7381 7.92717 97.3388 7.78583 98.0278 7.6975C98.7344 7.60917 99.3969 7.565 100.015 7.565Z" fill="white"/>
<path d="M109.05 15.9125C108.927 15.7182 108.812 15.462 108.706 15.144C108.6 14.826 108.547 14.4903 108.547 14.137C108.547 13.4833 108.697 13.0152 108.997 12.7325C109.298 12.4322 109.686 12.282 110.163 12.282H115.834C115.94 12.4763 116.046 12.7325 116.152 13.0505C116.276 13.3685 116.338 13.7042 116.338 14.0575C116.338 14.7112 116.188 15.1882 115.887 15.4885C115.587 15.7712 115.198 15.9125 114.721 15.9125H109.05Z" fill="white"/>
<path d="M123.453 17.3965C123.648 17.4318 123.886 17.4672 124.169 17.5025C124.452 17.5202 124.717 17.529 124.964 17.529C125.565 17.529 126.112 17.4407 126.607 17.264C127.119 17.0873 127.552 16.8135 127.905 16.4425C128.276 16.0715 128.559 15.5945 128.753 15.0115C128.965 14.4108 129.071 13.6953 129.071 12.865C129.071 11.275 128.7 10.0825 127.958 9.2875C127.216 8.47483 126.227 8.0685 124.99 8.0685C124.743 8.0685 124.487 8.07733 124.222 8.095C123.975 8.11267 123.718 8.13917 123.453 8.1745V17.3965ZM124.937 21.2655C124.637 21.2655 124.293 21.2567 123.904 21.239C123.515 21.2213 123.109 21.186 122.685 21.133C122.279 21.08 121.864 21.0093 121.439 20.921C121.033 20.8503 120.653 20.7443 120.3 20.603C119.328 20.232 118.842 19.5872 118.842 18.6685V6.293C118.842 5.922 118.94 5.63933 119.134 5.445C119.346 5.233 119.629 5.06517 119.982 4.9415C120.742 4.69417 121.545 4.53517 122.393 4.4645C123.241 4.37617 124.001 4.332 124.672 4.332C126.05 4.332 127.296 4.49983 128.409 4.8355C129.54 5.17117 130.502 5.69233 131.297 6.399C132.11 7.088 132.737 7.9625 133.179 9.0225C133.621 10.0825 133.841 11.3368 133.841 12.7855C133.841 14.1988 133.63 15.4355 133.205 16.4955C132.781 17.5378 132.172 18.4212 131.377 19.1455C130.6 19.8522 129.663 20.3822 128.568 20.7355C127.473 21.0888 126.262 21.2655 124.937 21.2655Z" fill="white"/>
<path d="M151.04 20.285C150.793 20.5323 150.431 20.7178 149.954 20.8415C149.495 20.9828 148.938 21.0535 148.284 21.0535C147.631 21.0535 147.012 20.9563 146.429 20.762C145.846 20.5677 145.369 20.0995 144.998 19.3575L142.375 14.0045C142.11 13.4568 141.871 12.9445 141.659 12.4675C141.447 11.9728 141.218 11.4075 140.97 10.7715L140.811 10.798C140.882 11.752 140.917 12.7237 140.917 13.713C140.935 14.7023 140.944 15.674 140.944 16.628V20.7355C140.75 20.7885 140.449 20.8415 140.043 20.8945C139.654 20.9475 139.266 20.974 138.877 20.974C138.488 20.974 138.144 20.9475 137.843 20.8945C137.543 20.8415 137.296 20.7355 137.101 20.5765C136.907 20.4175 136.757 20.2055 136.651 19.9405C136.545 19.6578 136.492 19.2957 136.492 18.854V5.604C136.739 5.25067 137.119 4.98567 137.631 4.809C138.144 4.63233 138.691 4.544 139.274 4.544C139.928 4.544 140.546 4.65 141.129 4.862C141.73 5.05633 142.207 5.51567 142.56 6.24L145.21 11.593C145.475 12.1407 145.714 12.6618 145.926 13.1565C146.138 13.6335 146.368 14.19 146.615 14.826L146.747 14.7995C146.677 13.8455 146.633 12.8915 146.615 11.9375C146.597 10.9835 146.588 10.0295 146.588 9.0755V4.7825C146.783 4.7295 147.074 4.6765 147.463 4.6235C147.869 4.5705 148.267 4.544 148.655 4.544C149.433 4.544 150.025 4.68533 150.431 4.968C150.837 5.233 151.04 5.79833 151.04 6.664V20.285Z" fill="white"/>
</svg>
