<svg width="89" height="15" viewBox="0 0 89 15" fill="none" xmlns="http://www.w3.org/2000/svg">
<path d="M4.14872 2.45513C4.36745 2.32647 4.69554 2.20424 5.13299 2.08844C5.58332 1.97265 6.03364 1.91475 6.48396 1.91475C7.12727 1.91475 7.69339 2.01125 8.18231 2.20424C8.6841 2.38437 9.00576 2.67386 9.14728 3.07272C9.37888 3.74177 9.62977 4.52018 9.89996 5.40795C10.1702 6.29573 10.4403 7.21567 10.7105 8.16778C10.9807 9.10702 11.2445 10.0398 11.5018 10.9662C11.7591 11.8797 11.9843 12.6903 12.1773 13.3979C12.0229 13.5781 11.7913 13.7196 11.4825 13.8225C11.1737 13.9383 10.807 13.9962 10.3825 13.9962C10.0737 13.9962 9.8099 13.9705 9.59117 13.919C9.38531 13.8676 9.21162 13.7904 9.07009 13.6874C8.94142 13.5845 8.83206 13.4494 8.742 13.2821C8.6648 13.1149 8.59403 12.9219 8.5297 12.7032L8.18231 11.3715H4.68911C4.58618 11.7575 4.48325 12.1563 4.38031 12.5681C4.27738 12.9798 4.17445 13.3786 4.07152 13.7646C3.89139 13.829 3.6984 13.8804 3.49254 13.919C3.29954 13.9705 3.06152 13.9962 2.77846 13.9962C2.12228 13.9962 1.63336 13.8869 1.3117 13.6681C1.00291 13.4365 0.848511 13.1213 0.848511 12.7225C0.848511 12.5423 0.874243 12.3622 0.925709 12.1821C0.977174 12.0019 1.03507 11.7896 1.0994 11.5452C1.18947 11.1978 1.3117 10.7668 1.46609 10.2521C1.63336 9.73747 1.81348 9.18422 2.00648 8.59237C2.19947 7.98765 2.40534 7.37007 2.62406 6.73962C2.84279 6.10917 3.04865 5.51732 3.24165 4.96406C3.43464 4.39795 3.60834 3.89616 3.76273 3.45871C3.92999 3.02125 4.05866 2.68673 4.14872 2.45513ZM6.46466 4.94477C6.28453 5.48515 6.07867 6.08987 5.84707 6.75892C5.62835 7.4151 5.42892 8.08415 5.24879 8.76606H7.64193C7.4618 8.07128 7.27524 7.3958 7.08224 6.73962C6.90211 6.07057 6.73485 5.47228 6.58045 4.94477H6.46466Z" fill="#F45B1A"/>
<path d="M13.5467 4.42368C13.5467 3.7675 13.656 3.20781 13.8748 2.74463C14.1063 2.26857 14.4151 1.88258 14.8011 1.58666C15.1871 1.27787 15.6374 1.05271 16.1521 0.911175C16.6796 0.769646 17.2393 0.698882 17.8311 0.698882C18.7833 0.698882 19.4845 0.827545 19.9348 1.08487C20.3851 1.32933 20.6103 1.75392 20.6103 2.35864C20.6103 2.61596 20.5524 2.84756 20.4366 3.05342C20.3336 3.25928 20.2178 3.41367 20.0892 3.5166C19.8447 3.45227 19.5874 3.40081 19.3172 3.36221C19.0599 3.31074 18.7575 3.28501 18.4101 3.28501C17.8569 3.28501 17.4259 3.38151 17.1171 3.5745C16.8083 3.75463 16.6539 4.07629 16.6539 4.53948V5.15706H19.819C19.8962 5.29859 19.967 5.47872 20.0313 5.69744C20.1085 5.90331 20.1471 6.1349 20.1471 6.39223C20.1471 6.84255 20.0441 7.17064 19.8383 7.3765C19.6453 7.56949 19.3815 7.66599 19.047 7.66599H16.8276V13.7839C16.6989 13.8225 16.493 13.8611 16.21 13.8997C15.9398 13.9383 15.6567 13.9576 15.3608 13.9576C15.0778 13.9576 14.8204 13.9383 14.5888 13.8997C14.3701 13.8611 14.1835 13.7839 14.0291 13.6681C13.8748 13.5523 13.7525 13.3979 13.6625 13.2049C13.5853 12.9991 13.5467 12.7353 13.5467 12.4137V4.42368ZM21.6717 1.81825C21.6717 1.32933 21.8326 0.917608 22.1542 0.583084C22.4887 0.24856 22.9262 0.0812988 23.4666 0.0812988C24.007 0.0812988 24.438 0.24856 24.7597 0.583084C25.0942 0.917608 25.2614 1.32933 25.2614 1.81825C25.2614 2.30717 25.0942 2.71889 24.7597 3.05342C24.438 3.38794 24.007 3.5552 23.4666 3.5552C22.9262 3.5552 22.4887 3.38794 22.1542 3.05342C21.8326 2.71889 21.6717 2.30717 21.6717 1.81825ZM25.107 13.7839C24.9655 13.8097 24.7532 13.8418 24.4702 13.8804C24.2 13.9319 23.9233 13.9576 23.6403 13.9576C23.3572 13.9576 23.0999 13.9383 22.8683 13.8997C22.6496 13.8611 22.463 13.7839 22.3086 13.6681C22.1542 13.5523 22.032 13.3979 21.9419 13.2049C21.8647 12.9991 21.8261 12.7353 21.8261 12.4137V4.55878C21.9677 4.53304 22.1735 4.50088 22.4437 4.46228C22.7268 4.41081 23.0098 4.38508 23.2929 4.38508C23.576 4.38508 23.8268 4.40438 24.0456 4.44298C24.2772 4.48158 24.4702 4.55878 24.6246 4.67457C24.779 4.79037 24.8948 4.9512 24.9719 5.15706C25.062 5.35005 25.107 5.60738 25.107 5.92904V13.7839Z" fill="#F45B1A"/>
<path d="M35.1039 11.0048C35.1039 11.9826 34.7372 12.7482 34.0038 13.3014C33.2704 13.8547 32.1897 14.1313 30.7615 14.1313C30.2211 14.1313 29.7193 14.0927 29.2561 14.0155C28.7929 13.9383 28.3941 13.8225 28.0596 13.6681C27.7379 13.5009 27.4806 13.295 27.2876 13.0505C27.1075 12.8061 27.0174 12.5166 27.0174 12.1821C27.0174 11.8733 27.0817 11.6159 27.2104 11.4101C27.339 11.1914 27.4934 11.0112 27.6736 10.8697C28.0467 11.0756 28.4713 11.2621 28.9473 11.4294C29.4363 11.5838 29.9959 11.661 30.6264 11.661C31.0252 11.661 31.3276 11.6031 31.5335 11.4873C31.7522 11.3715 31.8616 11.2171 31.8616 11.0241C31.8616 10.844 31.7844 10.7024 31.63 10.5995C31.4756 10.4966 31.2182 10.4129 30.858 10.3486L30.279 10.2328C29.1596 10.0141 28.3233 9.67314 27.7701 9.20995C27.2297 8.7339 26.9595 8.05841 26.9595 7.1835C26.9595 6.70745 27.0624 6.27643 27.2683 5.89044C27.4741 5.50445 27.7636 5.18279 28.1368 4.92547C28.5099 4.66814 28.9538 4.46871 29.4684 4.32718C29.9959 4.18565 30.5749 4.11489 31.2054 4.11489C31.6814 4.11489 32.1253 4.15349 32.537 4.23068C32.9616 4.29502 33.3283 4.39795 33.6371 4.53948C33.9459 4.68101 34.1904 4.86757 34.3705 5.09916C34.5506 5.31789 34.6407 5.58165 34.6407 5.89044C34.6407 6.18637 34.5828 6.44369 34.467 6.66242C34.3641 6.86828 34.229 7.04198 34.0617 7.1835C33.9588 7.11917 33.8044 7.05484 33.5985 6.99051C33.3927 6.91331 33.1675 6.84898 32.923 6.79752C32.6786 6.73318 32.4277 6.68172 32.1704 6.64312C31.9259 6.60452 31.7007 6.58522 31.4949 6.58522C31.0703 6.58522 30.7422 6.63669 30.5106 6.73962C30.279 6.82968 30.1632 6.97764 30.1632 7.1835C30.1632 7.32503 30.2275 7.44083 30.3562 7.53089C30.4849 7.62096 30.7293 7.70459 31.0896 7.78179L31.6879 7.91688C32.923 8.19994 33.7979 8.59237 34.3126 9.09415C34.8401 9.58307 35.1039 10.22 35.1039 11.0048Z" fill="#F45B1A"/>
<path d="M45.9538 13.7839C45.8251 13.8225 45.6193 13.8611 45.3362 13.8997C45.066 13.9383 44.783 13.9576 44.487 13.9576C44.204 13.9576 43.9466 13.9383 43.7151 13.8997C43.4963 13.8611 43.3098 13.7839 43.1554 13.6681C43.001 13.5523 42.8787 13.3979 42.7887 13.2049C42.7115 12.9991 42.6729 12.7353 42.6729 12.4137V8.12918C42.6729 7.60166 42.5378 7.23497 42.2676 7.02911C42.0103 6.81038 41.6886 6.70102 41.3026 6.70102C41.0453 6.70102 40.8008 6.73318 40.5692 6.79752C40.3376 6.86185 40.1511 6.93904 40.0096 7.02911V13.7839C39.8809 13.8225 39.675 13.8611 39.392 13.8997C39.1218 13.9383 38.8387 13.9576 38.5428 13.9576C38.2597 13.9576 38.0024 13.9383 37.7708 13.8997C37.5521 13.8611 37.3655 13.7839 37.2111 13.6681C37.0567 13.5523 36.9345 13.3979 36.8444 13.2049C36.7672 12.9991 36.7286 12.7353 36.7286 12.4137V1.21997C36.8702 1.19423 37.076 1.16207 37.3462 1.12347C37.6293 1.072 37.9123 1.04627 38.1954 1.04627C38.4785 1.04627 38.7294 1.06557 38.9481 1.10417C39.1797 1.14277 39.3727 1.21997 39.5271 1.33576C39.6815 1.45156 39.7973 1.61239 39.8745 1.81825C39.9645 2.01125 40.0096 2.26857 40.0096 2.59023V4.48158C40.1768 4.41725 40.4277 4.34648 40.7622 4.26928C41.1096 4.17922 41.4892 4.13419 41.9009 4.13419C43.1747 4.13419 44.1654 4.45584 44.873 5.09916C45.5935 5.72961 45.9538 6.67529 45.9538 7.93618V13.7839Z" fill="#F45B1A"/>
<path d="M51.9938 11.7189C52.2125 11.7189 52.4505 11.6996 52.7079 11.661C52.9781 11.6095 53.1775 11.5452 53.3061 11.468V9.92403L51.9166 10.0398C51.5563 10.0656 51.2604 10.1428 51.0288 10.2714C50.7972 10.4001 50.6814 10.5931 50.6814 10.8504C50.6814 11.1077 50.7779 11.32 50.9709 11.4873C51.1768 11.6417 51.5177 11.7189 51.9938 11.7189ZM51.8394 4.13419C52.5342 4.13419 53.1646 4.20495 53.7307 4.34648C54.3097 4.48801 54.7986 4.70674 55.1975 5.00266C55.6092 5.28572 55.9244 5.65241 56.1432 6.10273C56.3619 6.54019 56.4713 7.06127 56.4713 7.66599V11.9891C56.4713 12.3236 56.3748 12.6002 56.1818 12.819C56.0016 13.0248 55.7829 13.2049 55.5256 13.3593C54.6893 13.8611 53.512 14.112 51.9938 14.112C51.3119 14.112 50.6943 14.0477 50.141 13.919C49.6006 13.7904 49.131 13.5974 48.7322 13.34C48.3462 13.0827 48.0438 12.7546 47.8251 12.3558C47.6192 11.9569 47.5163 11.4937 47.5163 10.9662C47.5163 10.0784 47.7801 9.39651 48.3076 8.92046C48.8351 8.4444 49.6521 8.14848 50.7586 8.03268L53.2868 7.76249V7.62739C53.2868 7.25427 53.1196 6.99051 52.7851 6.83611C52.4634 6.66885 51.9938 6.58522 51.3762 6.58522C50.8873 6.58522 50.4112 6.63669 49.948 6.73962C49.4848 6.84255 49.0667 6.97121 48.6936 7.12561C48.5263 7.00981 48.3848 6.83611 48.269 6.60452C48.1532 6.36006 48.0953 6.10917 48.0953 5.85184C48.0953 5.51732 48.1725 5.25356 48.3269 5.06056C48.4941 4.8547 48.745 4.68101 49.0796 4.53948C49.4527 4.39795 49.8901 4.29502 50.3919 4.23068C50.9066 4.16635 51.3891 4.13419 51.8394 4.13419Z" fill="#F45B1A"/>
<path d="M58.4194 10.2135C58.3294 10.072 58.2458 9.88543 58.1686 9.65384C58.0914 9.42224 58.0528 9.17778 58.0528 8.92046C58.0528 8.4444 58.1621 8.10345 58.3808 7.89758C58.5996 7.67886 58.8826 7.56949 59.23 7.56949H63.3601C63.4373 7.71102 63.5145 7.89758 63.5917 8.12918C63.6818 8.36077 63.7268 8.60523 63.7268 8.86256C63.7268 9.33861 63.6174 9.686 63.3987 9.90473C63.18 10.1106 62.8969 10.2135 62.5495 10.2135H58.4194Z" fill="#F45B1A"/>
<path d="M68.909 11.2943C69.0505 11.32 69.2242 11.3458 69.4301 11.3715C69.636 11.3844 69.829 11.3908 70.0091 11.3908C70.4465 11.3908 70.8454 11.3265 71.2057 11.1978C71.5788 11.0691 71.894 10.8697 72.1513 10.5995C72.4215 10.3293 72.6274 9.98193 72.7689 9.55734C72.9233 9.11988 73.0005 8.5988 73.0005 7.99408C73.0005 6.83611 72.7303 5.96764 72.1899 5.38865C71.6495 4.7968 70.929 4.50088 70.0284 4.50088C69.8483 4.50088 69.6617 4.50731 69.4687 4.52018C69.2886 4.53304 69.102 4.55234 68.909 4.57807V11.2943ZM69.9898 14.112C69.7711 14.112 69.5202 14.1056 69.2371 14.0927C68.954 14.0798 68.6581 14.0541 68.3493 14.0155C68.0534 13.9769 67.751 13.9255 67.4423 13.8611C67.1463 13.8097 66.8697 13.7325 66.6124 13.6295C65.9047 13.3593 65.5509 12.8897 65.5509 12.2207V3.20781C65.5509 2.93762 65.6217 2.73176 65.7632 2.59023C65.9176 2.43583 66.1235 2.3136 66.3808 2.22354C66.934 2.04341 67.5194 1.92761 68.137 1.87615C68.7546 1.81182 69.3079 1.77965 69.7968 1.77965C70.8004 1.77965 71.7074 1.90188 72.518 2.14634C73.3415 2.3908 74.0427 2.77036 74.6217 3.28501C75.2135 3.7868 75.6703 4.42368 75.9919 5.19566C76.3136 5.96764 76.4744 6.88115 76.4744 7.93618C76.4744 8.96549 76.32 9.86613 76.0112 10.6381C75.7024 11.3972 75.2585 12.0405 74.6796 12.5681C74.1134 13.0827 73.4315 13.4687 72.6338 13.726C71.8361 13.9834 70.9548 14.112 69.9898 14.112Z" fill="#F45B1A"/>
<path d="M89.0001 13.3979C88.8199 13.5781 88.5562 13.7132 88.2088 13.8032C87.8743 13.9062 87.469 13.9576 86.9929 13.9576C86.5169 13.9576 86.0666 13.8869 85.642 13.7453C85.2174 13.6038 84.87 13.2628 84.5998 12.7225L82.6891 8.82396C82.4961 8.4251 82.3224 8.05198 82.1681 7.70459C82.0137 7.34433 81.8464 6.93261 81.6663 6.46942L81.5505 6.48872C81.6019 7.1835 81.6277 7.89115 81.6277 8.61166C81.6405 9.33218 81.647 10.0398 81.647 10.7346V13.726C81.5054 13.7646 81.2867 13.8032 80.9908 13.8418C80.7077 13.8804 80.4247 13.8997 80.1416 13.8997C79.8586 13.8997 79.6077 13.8804 79.3889 13.8418C79.1702 13.8032 78.9901 13.726 78.8485 13.6102C78.707 13.4944 78.5976 13.34 78.5205 13.147C78.4433 12.9412 78.4047 12.6774 78.4047 12.3558V2.70603C78.5848 2.4487 78.8614 2.25571 79.2345 2.12704C79.6077 1.99838 80.0065 1.93405 80.4311 1.93405C80.9072 1.93405 81.3575 2.01125 81.7821 2.16564C82.2195 2.30717 82.5669 2.6417 82.8242 3.16921L84.7542 7.06771C84.9472 7.46656 85.1209 7.84612 85.2753 8.20638C85.4297 8.55377 85.5969 8.95905 85.7771 9.42224L85.8736 9.40294C85.8221 8.70816 85.7899 8.01338 85.7771 7.3186C85.7642 6.62382 85.7578 5.92904 85.7578 5.23426V2.10774C85.8993 2.06914 86.1116 2.03054 86.3946 1.99195C86.6906 1.95335 86.9801 1.93405 87.2631 1.93405C87.8292 1.93405 88.2603 2.03698 88.5562 2.24284C88.8521 2.43583 89.0001 2.84756 89.0001 3.47801V13.3979Z" fill="#F45B1A"/>
</svg>
