<svg width="26" height="27" viewBox="0 0 26 27" fill="none" xmlns="http://www.w3.org/2000/svg">
<path d="M14.0837 17.8334H11.917V20H14.0837V17.8334Z" fill="#F45B1A"/>
<path fill-rule="evenodd" clip-rule="evenodd" d="M5.41699 4.83335C5.41699 4.25872 5.64527 3.70762 6.05159 3.30129C6.45792 2.89496 7.00902 2.66669 7.58366 2.66669H18.417C18.9916 2.66669 19.5427 2.89496 19.9491 3.30129C20.3554 3.70762 20.5837 4.25872 20.5837 4.83335V22.1667C20.5837 22.7413 20.3554 23.2924 19.9491 23.6988C19.5427 24.1051 18.9916 24.3334 18.417 24.3334H7.58366C7.00902 24.3334 6.45792 24.1051 6.05159 23.6988C5.64527 23.2924 5.41699 22.7413 5.41699 22.1667V4.83335ZM7.58366 4.83335H18.417V22.1667H7.58366V4.83335Z" fill="#F45B1A"/>
</svg>
