<svg width="16" height="17" viewBox="0 0 16 17" fill="none" xmlns="http://www.w3.org/2000/svg">
<g clip-path="url(#clip0_801_3837)">
<path d="M7.46375 13.6996C7.79102 13.4917 8.20898 13.4917 8.53625 13.6996L10.91 15.2078C11.6615 15.6852 12.6152 15.0165 12.4226 14.1473L11.7573 11.1452C11.6798 10.7956 11.7952 10.4312 12.0598 10.1899L14.3193 8.12946C14.9624 7.54304 14.6013 6.47193 13.7344 6.39452L10.858 6.13763C10.4836 6.1042 10.1596 5.86372 10.0193 5.51509L8.92763 2.80387C8.59129 1.96854 7.40871 1.96854 7.07237 2.80387L5.98072 5.51509C5.84036 5.86372 5.51638 6.1042 5.14205 6.13763L2.26555 6.39452C1.39869 6.47193 1.03762 7.54304 1.6807 8.12946L3.94023 10.1899C4.20484 10.4312 4.32022 10.7956 4.24274 11.1452L3.5774 14.1473C3.38477 15.0165 4.33852 15.6852 5.08996 15.2078L7.46375 13.6996Z" fill="white"/>
</g>
<defs>
<clipPath id="clip0_801_3837">
<rect width="16" height="16" fill="white" transform="translate(0 0.5)"/>
</clipPath>
</defs>
</svg>
