<svg width="16" height="16" viewBox="0 0 16 16" fill="none" xmlns="http://www.w3.org/2000/svg">
<path d="M9.33317 3.33333V12.6667H6.6665V3.33333H9.33317ZM13.3332 2H11.9998V3.33333H10.6665V2H5.33317V3.33333H3.99984V2H2.6665V14H3.99984V12.6667H5.33317V14H10.6665V12.6667H11.9998V14H13.3332V2ZM10.6665 6V4.66667H11.9998V6H10.6665ZM3.99984 6V4.66667H5.33317V6H3.99984ZM10.6665 8.66667V7.33333H11.9998V8.66667H10.6665ZM3.99984 8.66667V7.33333H5.33317V8.66667H3.99984ZM10.6665 11.3333V10H11.9998V11.3333H10.6665ZM3.99984 11.3333V10H5.33317V11.3333H3.99984Z" fill="#A9A9A9"/>
</svg>
